<svg xmlns="http://www.w3.org/2000/svg" xmlns:xlink="http://www.w3.org/1999/xlink" width="418" zoomAndPan="magnify" viewBox="0 0 313.5 74.999997" height="100" preserveAspectRatio="xMidYMid meet" version="1.0"><defs><clipPath id="32ce1f2626"><path d="M 0 9 L 33 9 L 33 74.9375 L 0 74.9375 Z M 0 9 " clip-rule="nonzero"/></clipPath><clipPath id="f838b8832d"><path d="M 37 0.0585938 L 71 0.0585938 L 71 66 L 37 66 Z M 37 0.0585938 " clip-rule="nonzero"/></clipPath><clipPath id="53374c9c69"><path d="M 169 25 L 180.285156 25 L 180.285156 50 L 169 50 Z M 169 25 " clip-rule="nonzero"/></clipPath></defs><path fill="#6d1652" d="M 63.355469 10.363281 L 37.503906 17.335938 L 63.355469 17.335938 Z M 63.355469 10.363281 " fill-opacity="1" fill-rule="nonzero"/><path fill="#6d1652" d="M 70.558594 9.640625 L 70.558594 56.902344 L 37.503906 65.324219 L 75.738281 65.324219 L 75.738281 9.640625 Z M 70.558594 9.640625 " fill-opacity="1" fill-rule="nonzero"/><path fill="#ffffff" d="M 19.527344 25.960938 C 19.113281 25.546875 18.542969 25.1875 17.921875 24.980469 C 17.300781 24.722656 16.628906 24.617188 15.851562 24.617188 L 12.070312 24.617188 L 12.070312 34.277344 L 15.851562 34.277344 C 16.628906 34.277344 17.300781 34.175781 17.921875 33.917969 C 18.542969 33.660156 19.0625 33.347656 19.527344 32.933594 C 19.945312 32.523438 20.304688 32.003906 20.566406 31.386719 C 20.824219 30.816406 20.929688 30.144531 20.929688 29.472656 C 20.929688 28.804688 20.824219 28.132812 20.566406 27.5625 C 20.304688 26.890625 19.996094 26.375 19.527344 25.960938 Z M 18.441406 30.714844 C 18.335938 31.074219 18.128906 31.4375 17.921875 31.695312 C 17.714844 31.953125 17.40625 32.160156 17.09375 32.316406 C 16.785156 32.46875 16.367188 32.523438 15.953125 32.523438 L 14.453125 32.523438 L 14.453125 26.324219 L 15.953125 26.324219 C 16.367188 26.324219 16.785156 26.375 17.09375 26.53125 C 17.40625 26.683594 17.714844 26.890625 17.921875 27.148438 C 18.128906 27.410156 18.335938 27.71875 18.441406 28.132812 C 18.542969 28.492188 18.648438 28.957031 18.648438 29.421875 C 18.648438 29.886719 18.542969 30.300781 18.441406 30.714844 Z M 18.441406 30.714844 " fill-opacity="1" fill-rule="nonzero"/><path fill="#ffffff" d="M 22.585938 36.394531 L 24.140625 36.394531 C 24.347656 36.394531 24.449219 36.34375 24.554688 36.292969 C 24.65625 36.242188 24.710938 36.136719 24.761719 35.984375 L 28.441406 27.355469 L 26.78125 27.355469 C 26.679688 27.355469 26.574219 27.410156 26.472656 27.460938 C 26.367188 27.511719 26.316406 27.613281 26.265625 27.71875 L 25.226562 30.664062 C 25.175781 30.816406 25.125 30.921875 25.074219 31.074219 C 25.019531 31.230469 24.96875 31.335938 24.917969 31.488281 C 24.863281 31.230469 24.761719 30.921875 24.65625 30.664062 L 23.519531 27.71875 C 23.464844 27.613281 23.414062 27.511719 23.3125 27.460938 C 23.207031 27.410156 23.105469 27.355469 22.949219 27.355469 L 21.1875 27.355469 L 23.933594 33.605469 Z M 22.585938 36.394531 " fill-opacity="1" fill-rule="nonzero"/><path fill="#ffffff" d="M 34.8125 33.140625 L 34.191406 32.417969 C 34.085938 32.316406 33.984375 32.265625 33.828125 32.265625 C 33.722656 32.265625 33.570312 32.316406 33.464844 32.367188 C 33.359375 32.417969 33.207031 32.46875 33.101562 32.574219 C 32.945312 32.625 32.792969 32.730469 32.636719 32.78125 C 32.480469 32.832031 32.273438 32.882812 32.015625 32.882812 C 31.546875 32.882812 31.183594 32.730469 30.925781 32.523438 C 30.667969 32.265625 30.460938 31.851562 30.410156 31.28125 L 34.398438 31.28125 C 34.5 31.28125 34.554688 31.28125 34.605469 31.230469 C 34.65625 31.230469 34.707031 31.179688 34.761719 31.128906 C 34.8125 31.074219 34.8125 30.972656 34.8125 30.921875 C 34.8125 30.816406 34.8125 30.714844 34.8125 30.558594 C 34.8125 30.042969 34.761719 29.628906 34.605469 29.214844 C 34.449219 28.804688 34.242188 28.492188 33.984375 28.234375 C 33.722656 27.976562 33.359375 27.769531 33 27.613281 C 32.636719 27.460938 32.222656 27.410156 31.753906 27.410156 C 31.238281 27.410156 30.769531 27.511719 30.355469 27.667969 C 29.941406 27.875 29.578125 28.078125 29.269531 28.390625 C 28.957031 28.699219 28.75 29.0625 28.59375 29.472656 C 28.441406 29.886719 28.335938 30.300781 28.335938 30.765625 C 28.335938 31.386719 28.441406 31.902344 28.59375 32.367188 C 28.800781 32.832031 29.007812 33.195312 29.320312 33.503906 C 29.632812 33.8125 29.992188 34.019531 30.410156 34.226562 C 30.824219 34.382812 31.289062 34.484375 31.753906 34.484375 C 32.015625 34.484375 32.222656 34.484375 32.480469 34.433594 C 32.738281 34.382812 33 34.328125 33.257812 34.277344 C 33.515625 34.175781 33.777344 34.070312 34.035156 33.917969 C 34.34375 33.605469 34.605469 33.398438 34.8125 33.140625 Z M 30.875 29.007812 C 31.082031 28.804688 31.394531 28.699219 31.808594 28.699219 C 32.015625 28.699219 32.222656 28.75 32.375 28.804688 C 32.53125 28.855469 32.636719 28.957031 32.738281 29.113281 C 32.84375 29.214844 32.894531 29.371094 32.945312 29.527344 C 33 29.679688 33 29.835938 33 29.992188 L 30.410156 29.992188 C 30.511719 29.527344 30.667969 29.214844 30.875 29.007812 Z M 30.875 29.007812 " fill-opacity="1" fill-rule="nonzero"/><path fill="#ffffff" d="M 38.542969 29.9375 C 38.386719 30.144531 38.230469 30.40625 38.179688 30.664062 C 38.074219 30.921875 38.023438 31.179688 38.023438 31.488281 C 38.023438 31.902344 38.128906 32.316406 38.28125 32.675781 C 38.4375 33.039062 38.699219 33.347656 38.957031 33.554688 C 39.265625 33.8125 39.578125 33.96875 39.941406 34.125 C 40.304688 34.277344 40.664062 34.328125 41.082031 34.328125 C 41.648438 34.328125 42.167969 34.226562 42.6875 34.070312 C 43.203125 33.917969 43.617188 33.710938 44.085938 33.398438 L 44.5 33.8125 C 44.550781 33.863281 44.65625 33.96875 44.707031 34.019531 C 44.757812 34.070312 44.808594 34.125 44.914062 34.125 C 44.964844 34.175781 45.070312 34.175781 45.121094 34.175781 C 45.226562 34.175781 45.277344 34.175781 45.378906 34.175781 L 47.402344 34.175781 L 45.378906 32.058594 C 45.691406 31.59375 45.949219 31.074219 46.105469 30.507812 C 46.261719 29.9375 46.363281 29.371094 46.363281 28.699219 L 45.070312 28.699219 C 44.964844 28.699219 44.863281 28.75 44.757812 28.804688 C 44.707031 28.855469 44.65625 28.957031 44.65625 29.113281 C 44.601562 29.421875 44.550781 29.734375 44.5 29.992188 C 44.449219 30.300781 44.34375 30.558594 44.1875 30.816406 L 41.804688 28.285156 C 41.703125 28.132812 41.546875 28.027344 41.496094 27.925781 C 41.390625 27.820312 41.339844 27.71875 41.289062 27.613281 C 41.234375 27.511719 41.183594 27.410156 41.183594 27.304688 C 41.183594 27.203125 41.132812 27.097656 41.132812 26.996094 C 41.132812 26.839844 41.132812 26.738281 41.183594 26.632812 C 41.234375 26.53125 41.289062 26.425781 41.339844 26.324219 C 41.390625 26.21875 41.496094 26.167969 41.648438 26.117188 C 41.753906 26.066406 41.910156 26.015625 42.066406 26.015625 C 42.273438 26.015625 42.480469 26.066406 42.582031 26.167969 C 42.738281 26.273438 42.839844 26.480469 42.945312 26.683594 C 43.050781 26.890625 43.152344 26.996094 43.359375 26.996094 C 43.359375 26.996094 43.410156 26.996094 43.410156 26.996094 C 43.410156 26.996094 43.464844 26.996094 43.464844 26.996094 L 44.808594 26.738281 C 44.757812 26.480469 44.707031 26.167969 44.550781 25.910156 C 44.449219 25.652344 44.242188 25.394531 44.035156 25.1875 C 43.824219 24.980469 43.515625 24.824219 43.203125 24.671875 C 42.894531 24.566406 42.480469 24.464844 42.066406 24.464844 C 41.597656 24.464844 41.183594 24.515625 40.875 24.671875 C 40.511719 24.824219 40.199219 24.980469 39.992188 25.238281 C 39.734375 25.445312 39.578125 25.753906 39.421875 26.066406 C 39.320312 26.375 39.214844 26.683594 39.214844 27.046875 C 39.214844 27.355469 39.265625 27.613281 39.371094 27.925781 C 39.472656 28.234375 39.628906 28.542969 39.835938 28.855469 C 39.578125 29.007812 39.320312 29.164062 39.113281 29.320312 C 38.90625 29.527344 38.699219 29.734375 38.542969 29.9375 Z M 40.304688 30.609375 C 40.40625 30.351562 40.5625 30.144531 40.820312 29.9375 L 43.050781 32.265625 C 42.839844 32.417969 42.582031 32.523438 42.324219 32.574219 C 42.066406 32.675781 41.804688 32.675781 41.496094 32.675781 C 41.289062 32.675781 41.132812 32.625 40.925781 32.574219 C 40.769531 32.523438 40.613281 32.417969 40.511719 32.265625 C 40.40625 32.160156 40.304688 32.003906 40.25 31.800781 C 40.199219 31.644531 40.148438 31.4375 40.148438 31.230469 C 40.148438 31.074219 40.199219 30.816406 40.304688 30.609375 Z M 40.304688 30.609375 " fill-opacity="1" fill-rule="nonzero"/><path fill="#ffffff" d="M 19.527344 40.011719 C 19.113281 39.597656 18.542969 39.238281 17.921875 39.03125 C 17.300781 38.773438 16.628906 38.667969 15.851562 38.667969 L 12.070312 38.667969 L 12.070312 48.328125 L 15.851562 48.328125 C 16.628906 48.328125 17.300781 48.226562 17.921875 47.964844 C 18.542969 47.707031 19.0625 47.398438 19.527344 46.984375 C 19.945312 46.570312 20.304688 46.054688 20.566406 45.4375 C 20.824219 44.867188 20.929688 44.195312 20.929688 43.523438 C 20.929688 42.851562 20.824219 42.179688 20.566406 41.613281 C 20.304688 40.941406 19.996094 40.425781 19.527344 40.011719 Z M 18.441406 44.765625 C 18.335938 45.125 18.128906 45.488281 17.921875 45.746094 C 17.714844 46.003906 17.40625 46.210938 17.09375 46.367188 C 16.785156 46.519531 16.367188 46.570312 15.953125 46.570312 L 14.453125 46.570312 L 14.453125 40.375 L 15.953125 40.375 C 16.367188 40.375 16.785156 40.425781 17.09375 40.582031 C 17.40625 40.734375 17.714844 40.941406 17.921875 41.199219 C 18.128906 41.457031 18.335938 41.769531 18.441406 42.179688 C 18.542969 42.542969 18.648438 43.007812 18.648438 43.472656 C 18.648438 43.9375 18.542969 44.402344 18.441406 44.765625 Z M 18.441406 44.765625 " fill-opacity="1" fill-rule="nonzero"/><path fill="#ffffff" d="M 25.902344 46.3125 C 25.695312 46.46875 25.539062 46.625 25.332031 46.726562 C 25.125 46.832031 24.917969 46.882812 24.710938 46.882812 C 24.398438 46.882812 24.191406 46.777344 24.035156 46.625 C 23.878906 46.417969 23.828125 46.160156 23.828125 45.847656 L 23.828125 41.511719 L 21.757812 41.511719 L 21.757812 45.847656 C 21.757812 46.210938 21.808594 46.570312 21.910156 46.882812 C 22.015625 47.191406 22.171875 47.449219 22.378906 47.707031 C 22.585938 47.964844 22.84375 48.121094 23.105469 48.277344 C 23.414062 48.429688 23.726562 48.484375 24.089844 48.484375 C 24.296875 48.484375 24.503906 48.484375 24.710938 48.429688 C 24.917969 48.378906 25.074219 48.328125 25.226562 48.277344 C 25.382812 48.226562 25.539062 48.121094 25.695312 48.019531 C 25.847656 47.914062 25.953125 47.8125 26.109375 47.65625 L 26.210938 48.070312 C 26.316406 48.277344 26.472656 48.429688 26.730469 48.429688 L 28.023438 48.429688 L 28.023438 41.5625 L 25.953125 41.5625 L 25.953125 46.3125 Z M 25.902344 46.3125 " fill-opacity="1" fill-rule="nonzero"/><path fill="#ffffff" d="M 31.703125 41.613281 C 31.394531 41.820312 31.082031 42.128906 30.875 42.542969 L 30.769531 41.921875 C 30.769531 41.820312 30.71875 41.769531 30.71875 41.714844 C 30.71875 41.664062 30.667969 41.613281 30.617188 41.5625 C 30.5625 41.511719 30.511719 41.511719 30.460938 41.457031 C 30.410156 41.457031 30.304688 41.40625 30.199219 41.40625 L 28.957031 41.40625 L 28.957031 48.277344 L 31.03125 48.277344 L 31.03125 44.09375 C 31.339844 43.523438 31.753906 43.214844 32.324219 43.214844 C 32.480469 43.214844 32.585938 43.214844 32.6875 43.265625 C 32.792969 43.265625 32.894531 43.316406 32.945312 43.316406 C 33.050781 43.316406 33.101562 43.316406 33.152344 43.265625 C 33.207031 43.214844 33.257812 43.164062 33.257812 43.058594 L 33.515625 41.5625 C 33.308594 41.40625 33.050781 41.355469 32.738281 41.355469 C 32.375 41.304688 32.015625 41.40625 31.703125 41.613281 Z M 31.703125 41.613281 " fill-opacity="1" fill-rule="nonzero"/><path fill="#ffffff" d="M 38.179688 43.164062 C 38.335938 43.371094 38.386719 43.628906 38.386719 43.9375 L 38.386719 48.277344 L 40.457031 48.277344 L 40.457031 43.9375 C 40.457031 43.574219 40.40625 43.214844 40.304688 42.90625 C 40.199219 42.59375 40.042969 42.285156 39.835938 42.078125 C 39.628906 41.871094 39.371094 41.664062 39.113281 41.511719 C 38.800781 41.355469 38.488281 41.304688 38.128906 41.304688 C 37.714844 41.304688 37.402344 41.355469 37.089844 41.511719 C 36.78125 41.664062 36.519531 41.820312 36.261719 42.027344 L 36.261719 37.738281 L 34.191406 37.738281 L 34.191406 48.277344 L 36.261719 48.277344 L 36.261719 43.371094 C 36.46875 43.214844 36.625 43.058594 36.832031 42.957031 C 37.039062 42.851562 37.246094 42.800781 37.453125 42.800781 C 37.816406 42.851562 38.023438 42.957031 38.179688 43.164062 Z M 38.179688 43.164062 " fill-opacity="1" fill-rule="nonzero"/><path fill="#ffffff" d="M 43.359375 44.507812 C 42.839844 44.660156 42.425781 44.816406 42.117188 45.023438 C 41.804688 45.230469 41.597656 45.488281 41.496094 45.746094 C 41.390625 46.003906 41.289062 46.261719 41.289062 46.519531 C 41.289062 46.832031 41.339844 47.089844 41.441406 47.347656 C 41.546875 47.605469 41.703125 47.761719 41.859375 47.964844 C 42.011719 48.121094 42.273438 48.226562 42.53125 48.328125 C 42.789062 48.429688 43.050781 48.429688 43.410156 48.429688 C 43.671875 48.429688 43.878906 48.429688 44.035156 48.378906 C 44.242188 48.328125 44.394531 48.277344 44.601562 48.226562 C 44.757812 48.171875 44.914062 48.070312 45.121094 47.964844 C 45.277344 47.863281 45.433594 47.707031 45.640625 47.605469 L 45.792969 47.964844 C 45.847656 48.121094 45.949219 48.226562 46.054688 48.277344 C 46.15625 48.328125 46.3125 48.378906 46.519531 48.378906 L 47.453125 48.378906 L 47.453125 44.09375 C 47.453125 43.679688 47.402344 43.316406 47.246094 43.007812 C 47.140625 42.699219 46.933594 42.386719 46.726562 42.128906 C 46.519531 41.871094 46.210938 41.714844 45.898438 41.5625 C 45.585938 41.40625 45.171875 41.355469 44.757812 41.355469 C 44.1875 41.355469 43.617188 41.457031 43.152344 41.613281 C 42.632812 41.769531 42.167969 42.078125 41.753906 42.441406 L 42.117188 43.058594 C 42.167969 43.164062 42.273438 43.265625 42.375 43.316406 C 42.480469 43.371094 42.582031 43.421875 42.738281 43.421875 C 42.894531 43.421875 43.050781 43.371094 43.152344 43.316406 C 43.257812 43.265625 43.410156 43.214844 43.515625 43.164062 C 43.617188 43.109375 43.773438 43.058594 43.929688 43.007812 C 44.085938 42.957031 44.292969 42.90625 44.550781 42.90625 C 44.863281 42.90625 45.070312 43.007812 45.277344 43.164062 C 45.433594 43.316406 45.535156 43.628906 45.535156 44.039062 L 45.535156 44.351562 C 44.550781 44.300781 43.878906 44.402344 43.359375 44.507812 Z M 45.328125 46.46875 C 45.121094 46.675781 44.914062 46.832031 44.707031 46.933594 C 44.5 47.035156 44.292969 47.089844 44.035156 47.089844 C 43.773438 47.089844 43.617188 47.035156 43.464844 46.933594 C 43.359375 46.832031 43.257812 46.675781 43.257812 46.417969 C 43.257812 46.3125 43.308594 46.210938 43.359375 46.105469 C 43.410156 46.003906 43.515625 45.902344 43.671875 45.847656 C 43.824219 45.746094 44.035156 45.695312 44.292969 45.640625 C 44.550781 45.589844 44.914062 45.539062 45.328125 45.539062 Z M 45.328125 46.46875 " fill-opacity="1" fill-rule="nonzero"/><path fill="#ffffff" d="M 58.175781 48.277344 L 58.175781 43.9375 C 58.175781 43.523438 58.125 43.164062 58.019531 42.851562 C 57.917969 42.542969 57.761719 42.234375 57.554688 42.027344 C 57.347656 41.820312 57.089844 41.613281 56.777344 41.511719 C 56.464844 41.40625 56.105469 41.355469 55.742188 41.355469 C 55.535156 41.355469 55.328125 41.355469 55.121094 41.40625 C 54.914062 41.457031 54.707031 41.511719 54.5 41.613281 C 54.289062 41.714844 54.136719 41.820312 53.980469 41.976562 C 53.824219 42.128906 53.667969 42.285156 53.566406 42.542969 C 53.410156 42.179688 53.203125 41.921875 52.945312 41.664062 C 52.683594 41.457031 52.324219 41.355469 51.90625 41.355469 C 51.699219 41.355469 51.546875 41.355469 51.339844 41.40625 C 51.183594 41.457031 51.027344 41.511719 50.871094 41.5625 C 50.714844 41.613281 50.613281 41.714844 50.457031 41.820312 C 50.355469 41.921875 50.199219 42.027344 50.09375 42.128906 L 49.992188 41.769531 C 49.9375 41.664062 49.886719 41.5625 49.785156 41.511719 C 49.679688 41.457031 49.578125 41.40625 49.472656 41.40625 L 48.179688 41.40625 L 48.179688 48.277344 L 50.25 48.277344 L 50.25 43.316406 C 50.40625 43.164062 50.5625 43.058594 50.714844 42.957031 C 50.871094 42.851562 51.078125 42.851562 51.234375 42.851562 C 51.546875 42.851562 51.753906 42.957031 51.90625 43.109375 C 52.0625 43.265625 52.113281 43.523438 52.113281 43.9375 L 52.113281 48.277344 L 54.1875 48.277344 L 54.1875 43.9375 C 54.1875 43.574219 54.289062 43.316406 54.445312 43.164062 C 54.652344 42.957031 54.859375 42.90625 55.121094 42.90625 C 55.742188 42.90625 56.050781 43.265625 56.050781 43.988281 L 56.050781 48.328125 L 58.175781 48.328125 Z M 58.175781 48.277344 " fill-opacity="1" fill-rule="nonzero"/><g clip-path="url(#32ce1f2626)"><path fill="#cc3369" d="M -0.777344 65.324219 L 6.992188 65.324219 L 6.992188 74.050781 L 20.304688 65.324219 L 32.324219 65.324219 L 32.324219 57.574219 L 6.992188 57.574219 L 6.992188 17.335938 L 32.324219 17.335938 L 32.324219 9.640625 L -0.777344 9.640625 Z M -0.777344 65.324219 " fill-opacity="1" fill-rule="nonzero"/></g><g clip-path="url(#f838b8832d)"><path fill="#cc3369" d="M 37.503906 9.640625 L 37.503906 17.335938 L 63.355469 10.363281 L 63.355469 50.703125 L 37.503906 57.574219 L 37.503906 65.324219 L 70.558594 56.902344 L 70.558594 0.859375 Z M 37.503906 9.640625 " fill-opacity="1" fill-rule="nonzero"/></g><path fill="#ffffff" d="M 106.171875 49.15625 C 104 49.15625 102.074219 48.644531 100.378906 47.625 C 98.691406 46.605469 97.359375 45.132812 96.402344 43.214844 C 95.441406 41.296875 94.964844 38.984375 94.964844 36.285156 C 94.964844 33.585938 95.457031 31.316406 96.4375 29.398438 C 97.425781 27.480469 98.773438 26.007812 100.484375 24.96875 C 102.199219 23.933594 104.15625 23.414062 106.355469 23.414062 C 108.066406 23.414062 109.515625 23.734375 110.691406 24.378906 C 111.867188 25.019531 112.804688 25.71875 113.511719 26.476562 L 111.769531 28.515625 C 111.136719 27.859375 110.402344 27.308594 109.570312 26.855469 C 108.742188 26.402344 107.6875 26.171875 106.425781 26.171875 C 104.765625 26.171875 103.308594 26.582031 102.074219 27.40625 C 100.839844 28.230469 99.886719 29.378906 99.21875 30.871094 C 98.550781 32.359375 98.214844 34.136719 98.214844 36.210938 C 98.214844 39.339844 98.929688 41.824219 100.355469 43.652344 C 101.777344 45.476562 103.820312 46.390625 106.46875 46.390625 C 107.347656 46.390625 108.195312 46.261719 109.003906 45.996094 C 109.808594 45.734375 110.453125 45.371094 110.9375 44.917969 L 110.9375 38.441406 L 105.679688 38.441406 L 105.679688 35.832031 L 113.816406 35.832031 L 113.816406 46.285156 C 113.035156 47.117188 111.984375 47.808594 110.65625 48.351562 C 109.332031 48.894531 107.835938 49.164062 106.171875 49.164062 Z M 106.171875 49.15625 " fill-opacity="1" fill-rule="nonzero"/><path fill="#ffffff" d="M 118.179688 48.695312 L 118.179688 21.742188 L 121.28125 21.742188 L 121.28125 29.085938 L 121.167969 32.871094 C 122.046875 32.039062 122.976562 31.324219 123.949219 30.730469 C 124.917969 30.136719 126.039062 29.839844 127.296875 29.839844 C 129.242188 29.839844 130.664062 30.449219 131.554688 31.675781 C 132.449219 32.902344 132.894531 34.6875 132.894531 37.035156 L 132.894531 48.695312 L 129.792969 48.695312 L 129.792969 37.453125 C 129.792969 35.742188 129.511719 34.492188 128.960938 33.710938 C 128.410156 32.925781 127.519531 32.53125 126.3125 32.53125 C 125.378906 32.53125 124.53125 32.769531 123.792969 33.25 C 123.050781 33.726562 122.210938 34.433594 121.273438 35.371094 L 121.273438 48.695312 L 118.171875 48.695312 Z M 118.179688 48.695312 " fill-opacity="1" fill-rule="nonzero"/><path fill="#ffffff" d="M 144.671875 49.15625 C 143.179688 49.15625 141.789062 48.777344 140.492188 48.019531 C 139.191406 47.265625 138.144531 46.167969 137.347656 44.730469 C 136.546875 43.289062 136.152344 41.5625 136.152344 39.542969 C 136.152344 37.527344 136.546875 35.71875 137.347656 34.285156 C 138.144531 32.84375 139.191406 31.75 140.492188 30.992188 C 141.789062 30.238281 143.179688 29.859375 144.671875 29.859375 C 146.160156 29.859375 147.585938 30.238281 148.875 30.992188 C 150.160156 31.75 151.207031 32.84375 151.996094 34.285156 C 152.785156 35.726562 153.1875 37.480469 153.1875 39.542969 C 153.1875 41.609375 152.792969 43.289062 151.996094 44.730469 C 151.199219 46.167969 150.160156 47.265625 148.875 48.019531 C 147.59375 48.777344 146.183594 49.15625 144.671875 49.15625 Z M 144.671875 46.582031 C 146.257812 46.582031 147.542969 45.929688 148.515625 44.628906 C 149.484375 43.328125 149.972656 41.632812 149.972656 39.535156 C 149.972656 37.4375 149.484375 35.699219 148.515625 34.382812 C 147.542969 33.066406 146.257812 32.417969 144.671875 32.417969 C 143.082031 32.417969 141.832031 33.074219 140.84375 34.382812 C 139.855469 35.691406 139.371094 37.414062 139.371094 39.535156 C 139.371094 41.660156 139.863281 43.328125 140.84375 44.628906 C 141.832031 45.929688 143.097656 46.582031 144.671875 46.582031 Z M 144.671875 46.582031 " fill-opacity="1" fill-rule="nonzero"/><path fill="#ffffff" d="M 161.3125 49.15625 C 160.003906 49.15625 158.753906 48.910156 157.566406 48.417969 C 156.382812 47.921875 155.34375 47.320312 154.464844 46.613281 L 156.019531 44.53125 C 156.828125 45.164062 157.65625 45.683594 158.523438 46.101562 C 159.378906 46.523438 160.347656 46.730469 161.433594 46.730469 C 162.644531 46.730469 163.558594 46.441406 164.160156 45.875 C 164.769531 45.304688 165.0625 44.628906 165.0625 43.847656 C 165.0625 43.214844 164.859375 42.6875 164.4375 42.261719 C 164.019531 41.832031 163.492188 41.46875 162.851562 41.183594 C 162.207031 40.894531 161.542969 40.621094 160.859375 40.367188 C 160.003906 40.039062 159.15625 39.667969 158.324219 39.25 C 157.492188 38.828125 156.808594 38.285156 156.285156 37.617188 C 155.757812 36.953125 155.484375 36.097656 155.484375 35.066406 C 155.484375 33.578125 156.042969 32.335938 157.171875 31.339844 C 158.292969 30.34375 159.855469 29.839844 161.847656 29.839844 C 162.980469 29.839844 164.042969 30.046875 165.023438 30.449219 C 166.011719 30.855469 166.851562 31.347656 167.558594 31.921875 L 166.042969 33.890625 C 165.410156 33.414062 164.761719 33.019531 164.078125 32.714844 C 163.394531 32.410156 162.652344 32.261719 161.847656 32.261719 C 160.6875 32.261719 159.832031 32.523438 159.296875 33.058594 C 158.753906 33.585938 158.480469 34.210938 158.480469 34.910156 C 158.480469 35.496094 158.671875 35.964844 159.046875 36.335938 C 159.425781 36.695312 159.921875 37.019531 160.523438 37.28125 C 161.128906 37.542969 161.773438 37.816406 162.457031 38.097656 C 163.335938 38.425781 164.207031 38.796875 165.0625 39.214844 C 165.921875 39.636719 166.636719 40.1875 167.203125 40.878906 C 167.773438 41.570312 168.058594 42.5 168.058594 43.660156 C 168.058594 44.648438 167.804688 45.550781 167.285156 46.382812 C 166.769531 47.214844 166.011719 47.882812 165.015625 48.390625 C 164.019531 48.902344 162.785156 49.148438 161.328125 49.148438 Z M 161.3125 49.15625 " fill-opacity="1" fill-rule="nonzero"/><g clip-path="url(#53374c9c69)"><path fill="#ffffff" d="M 177.433594 49.15625 C 175.46875 49.15625 174.09375 48.589844 173.328125 47.453125 C 172.554688 46.316406 172.175781 44.84375 172.175781 43.027344 L 172.175781 32.84375 L 169.449219 32.84375 L 169.449219 30.5 L 172.332031 30.3125 L 172.710938 25.167969 L 175.320312 25.167969 L 175.320312 30.3125 L 180.28125 30.3125 L 180.28125 32.84375 L 175.320312 32.84375 L 175.320312 43.066406 C 175.320312 44.203125 175.523438 45.082031 175.945312 45.699219 C 176.363281 46.316406 177.097656 46.628906 178.15625 46.628906 C 178.488281 46.628906 178.839844 46.574219 179.21875 46.457031 C 179.597656 46.34375 179.9375 46.234375 180.238281 46.136719 L 180.847656 48.480469 C 180.347656 48.65625 179.796875 48.820312 179.203125 48.960938 C 178.609375 49.097656 178.027344 49.164062 177.441406 49.164062 Z M 177.433594 49.15625 " fill-opacity="1" fill-rule="nonzero"/></g><path fill="#ffffff" d="M 185.878906 48.695312 L 185.878906 23.859375 L 192.957031 23.859375 C 194.824219 23.859375 196.457031 24.089844 197.839844 24.542969 C 199.222656 24.996094 200.308594 25.757812 201.097656 26.828125 C 201.878906 27.898438 202.273438 29.347656 202.273438 31.167969 C 202.273438 33.765625 201.425781 35.691406 199.738281 36.960938 C 198.050781 38.226562 195.839844 38.851562 193.113281 38.851562 L 189.023438 38.851562 L 189.023438 48.695312 Z M 189.023438 36.277344 L 192.734375 36.277344 C 194.910156 36.277344 196.511719 35.867188 197.566406 35.042969 C 198.613281 34.21875 199.136719 32.925781 199.136719 31.167969 C 199.136719 29.40625 198.585938 28.128906 197.492188 27.4375 C 196.398438 26.746094 194.761719 26.402344 192.585938 26.402344 L 189.03125 26.402344 L 189.03125 36.285156 Z M 189.023438 36.277344 " fill-opacity="1" fill-rule="nonzero"/><path fill="#ffffff" d="M 205.253906 48.695312 L 205.253906 30.292969 L 207.828125 30.292969 L 208.09375 33.628906 L 208.207031 33.628906 C 208.839844 32.46875 209.605469 31.546875 210.519531 30.863281 C 211.425781 30.179688 212.398438 29.839844 213.433594 29.839844 C 214.167969 29.839844 214.824219 29.964844 215.402344 30.21875 L 214.792969 32.945312 C 214.488281 32.84375 214.207031 32.769531 213.960938 32.714844 C 213.707031 32.664062 213.390625 32.640625 213.015625 32.640625 C 212.230469 32.640625 211.417969 32.953125 210.570312 33.585938 C 209.722656 34.21875 208.988281 35.3125 208.355469 36.878906 L 208.355469 48.6875 L 205.253906 48.6875 Z M 205.253906 48.695312 " fill-opacity="1" fill-rule="nonzero"/><path fill="#ffffff" d="M 221.722656 49.15625 C 220.183594 49.15625 218.898438 48.695312 217.878906 47.773438 C 216.855469 46.851562 216.347656 45.578125 216.347656 43.929688 C 216.347656 41.914062 217.253906 40.367188 219.054688 39.296875 C 220.855469 38.226562 223.722656 37.46875 227.628906 37.042969 C 227.628906 36.261719 227.523438 35.511719 227.308594 34.8125 C 227.09375 34.105469 226.714844 33.527344 226.171875 33.09375 C 225.628906 32.648438 224.855469 32.425781 223.84375 32.425781 C 222.78125 32.425781 221.785156 32.632812 220.855469 33.035156 C 219.925781 33.4375 219.085938 33.890625 218.355469 34.402344 L 217.144531 32.246094 C 218 31.691406 219.054688 31.148438 220.304688 30.632812 C 221.554688 30.113281 222.914062 29.859375 224.371094 29.859375 C 226.617188 29.859375 228.246094 30.550781 229.25 31.921875 C 230.261719 33.296875 230.765625 35.132812 230.765625 37.429688 L 230.765625 48.710938 L 228.1875 48.710938 L 227.925781 46.515625 L 227.8125 46.515625 C 226.953125 47.222656 226.007812 47.839844 224.988281 48.367188 C 223.96875 48.894531 222.871094 49.164062 221.710938 49.164062 Z M 222.625 46.65625 C 223.507812 46.65625 224.339844 46.441406 225.128906 46.011719 C 225.910156 45.585938 226.742188 44.976562 227.628906 44.195312 L 227.628906 39.082031 C 224.578125 39.460938 222.4375 40.03125 221.210938 40.785156 C 219.984375 41.542969 219.375 42.515625 219.375 43.699219 C 219.375 44.738281 219.6875 45.484375 220.320312 45.957031 C 220.957031 46.425781 221.722656 46.65625 222.632812 46.65625 Z M 222.625 46.65625 " fill-opacity="1" fill-rule="nonzero"/><path fill="#ffffff" d="M 242.617188 49.15625 C 241.003906 49.15625 239.539062 48.777344 238.222656 48.019531 C 236.90625 47.265625 235.875 46.167969 235.117188 44.730469 C 234.363281 43.289062 233.984375 41.5625 233.984375 39.542969 C 233.984375 37.527344 234.394531 35.71875 235.21875 34.285156 C 236.039062 32.84375 237.117188 31.75 238.476562 30.992188 C 239.828125 30.238281 241.28125 29.859375 242.847656 29.859375 C 244.054688 29.859375 245.101562 30.070312 245.964844 30.5 C 246.839844 30.929688 247.585938 31.429688 248.21875 32.015625 L 246.632812 34.054688 C 246.105469 33.578125 245.539062 33.183594 244.945312 32.878906 C 244.351562 32.574219 243.6875 32.425781 242.953125 32.425781 C 241.84375 32.425781 240.855469 32.722656 239.984375 33.316406 C 239.109375 33.90625 238.425781 34.738281 237.941406 35.816406 C 237.449219 36.886719 237.199219 38.128906 237.199219 39.542969 C 237.199219 41.644531 237.726562 43.339844 238.773438 44.636719 C 239.816406 45.9375 241.191406 46.589844 242.878906 46.589844 C 243.734375 46.589844 244.535156 46.40625 245.265625 46.039062 C 246 45.675781 246.640625 45.238281 247.199219 44.730469 L 248.566406 46.8125 C 247.734375 47.542969 246.8125 48.121094 245.800781 48.53125 C 244.789062 48.941406 243.734375 49.15625 242.625 49.15625 Z M 242.617188 49.15625 " fill-opacity="1" fill-rule="nonzero"/><path fill="#ffffff" d="M 257.90625 49.15625 C 255.941406 49.15625 254.566406 48.589844 253.800781 47.453125 C 253.027344 46.316406 252.648438 44.84375 252.648438 43.027344 L 252.648438 32.84375 L 249.925781 32.84375 L 249.925781 30.5 L 252.804688 30.3125 L 253.183594 25.167969 L 255.792969 25.167969 L 255.792969 30.3125 L 260.753906 30.3125 L 260.753906 32.84375 L 255.792969 32.84375 L 255.792969 43.066406 C 255.792969 44.203125 255.996094 45.082031 256.417969 45.699219 C 256.835938 46.316406 257.570312 46.628906 258.632812 46.628906 C 258.960938 46.628906 259.3125 46.574219 259.691406 46.457031 C 260.070312 46.34375 260.410156 46.234375 260.714844 46.136719 L 261.324219 48.480469 C 260.820312 48.65625 260.269531 48.820312 259.675781 48.960938 C 259.082031 49.097656 258.5 49.164062 257.914062 49.164062 Z M 257.90625 49.15625 " fill-opacity="1" fill-rule="nonzero"/><path fill="#ffffff" d="M 265.273438 26.515625 C 264.664062 26.515625 264.167969 26.335938 263.773438 25.964844 C 263.378906 25.601562 263.191406 25.101562 263.191406 24.46875 C 263.191406 23.832031 263.386719 23.371094 263.773438 22.996094 C 264.160156 22.617188 264.664062 22.425781 265.273438 22.425781 C 265.882812 22.425781 266.375 22.617188 266.769531 22.996094 C 267.15625 23.371094 267.355469 23.867188 267.355469 24.46875 C 267.355469 25.066406 267.15625 25.59375 266.769531 25.964844 C 266.375 26.335938 265.882812 26.515625 265.273438 26.515625 Z M 263.683594 48.703125 L 263.683594 30.300781 L 266.785156 30.300781 L 266.785156 48.703125 Z M 263.683594 48.703125 " fill-opacity="1" fill-rule="nonzero"/><path fill="#ffffff" d="M 278.738281 49.15625 C 277.125 49.15625 275.660156 48.777344 274.339844 48.019531 C 273.023438 47.265625 271.996094 46.167969 271.238281 44.730469 C 270.480469 43.289062 270.101562 41.5625 270.101562 39.542969 C 270.101562 37.527344 270.515625 35.71875 271.339844 34.285156 C 272.160156 32.84375 273.238281 31.75 274.597656 30.992188 C 275.945312 30.238281 277.402344 29.859375 278.96875 29.859375 C 280.175781 29.859375 281.222656 30.070312 282.085938 30.5 C 282.957031 30.929688 283.707031 31.429688 284.339844 32.015625 L 282.753906 34.054688 C 282.226562 33.578125 281.65625 33.183594 281.066406 32.878906 C 280.472656 32.574219 279.804688 32.425781 279.074219 32.425781 C 277.960938 32.425781 276.976562 32.722656 276.101562 33.316406 C 275.230469 33.90625 274.546875 34.738281 274.0625 35.816406 C 273.566406 36.886719 273.320312 38.128906 273.320312 39.542969 C 273.320312 41.644531 273.847656 43.339844 274.894531 44.636719 C 275.9375 45.9375 277.3125 46.589844 279 46.589844 C 279.855469 46.589844 280.652344 46.40625 281.386719 46.039062 C 282.117188 45.675781 282.761719 45.238281 283.320312 44.730469 L 284.6875 46.8125 C 283.855469 47.542969 282.933594 48.121094 281.921875 48.53125 C 280.910156 48.941406 279.855469 49.15625 278.746094 49.15625 Z M 278.738281 49.15625 " fill-opacity="1" fill-rule="nonzero"/><path fill="#ffffff" d="M 294.363281 49.15625 C 292.726562 49.15625 291.238281 48.769531 289.894531 48.003906 C 288.554688 47.230469 287.5 46.128906 286.71875 44.6875 C 285.9375 43.246094 285.542969 41.535156 285.542969 39.535156 C 285.542969 37.535156 285.9375 35.792969 286.734375 34.351562 C 287.535156 32.910156 288.554688 31.800781 289.820312 31.019531 C 291.082031 30.238281 292.40625 29.839844 293.796875 29.839844 C 296.140625 29.839844 297.953125 30.625 299.226562 32.1875 C 300.503906 33.75 301.136719 35.847656 301.136719 38.472656 C 301.136719 38.804688 301.136719 39.125 301.121094 39.4375 C 301.105469 39.75 301.082031 40.023438 301.023438 40.253906 L 288.605469 40.253906 C 288.726562 42.195312 289.34375 43.75 290.4375 44.910156 C 291.535156 46.070312 292.964844 46.65625 294.734375 46.65625 C 295.617188 46.65625 296.429688 46.523438 297.179688 46.261719 C 297.929688 45.996094 298.636719 45.652344 299.320312 45.214844 L 300.414062 47.253906 C 299.632812 47.757812 298.742188 48.203125 297.746094 48.582031 C 296.75 48.960938 295.625 49.148438 294.355469 49.148438 Z M 288.570312 38.03125 L 298.414062 38.03125 C 298.414062 36.160156 298.019531 34.746094 297.21875 33.765625 C 296.421875 32.796875 295.3125 32.308594 293.871094 32.308594 C 292.585938 32.308594 291.425781 32.8125 290.40625 33.808594 C 289.386719 34.804688 288.769531 36.210938 288.570312 38.03125 Z M 288.570312 38.03125 " fill-opacity="1" fill-rule="nonzero"/></svg>